<svg width="26" height="26" viewBox="0 0 26 26" fill="none" xmlns="http://www.w3.org/2000/svg">
<g clip-path="url(#clip0_238_16)">
<path d="M26 13C26 5.8203 20.1797 0 13 0C5.8203 0 0 5.8203 0 13C0 20.1797 5.8203 26 13 26C20.1797 26 26 20.1797 26 13Z" fill="#64BFA4" fill-opacity="0.63"/>
<mask id="mask0_238_16" style="mask-type:luminance" maskUnits="userSpaceOnUse" x="4" y="4" width="18" height="18">
<path d="M21.8339 4.16602H4.16626V21.8337H21.8339V4.16602Z" fill="white"/>
</mask>
<g mask="url(#mask0_238_16)">
<path fill-rule="evenodd" clip-rule="evenodd" d="M20.0238 8.11564C20.2308 8.32272 20.3471 8.60355 20.3471 8.89634C20.3471 9.18913 20.2308 9.46996 20.0238 9.67703L11.7473 17.9536C11.6379 18.063 11.508 18.1498 11.3651 18.209C11.2222 18.2682 11.069 18.2987 10.9143 18.2987C10.7596 18.2987 10.6064 18.2682 10.4635 18.209C10.3206 18.1498 10.1907 18.063 10.0813 17.9536L5.96919 13.8422C5.86372 13.7404 5.7796 13.6185 5.72173 13.4838C5.66386 13.349 5.6334 13.2042 5.63212 13.0575C5.63085 12.9109 5.65879 12.7655 5.71431 12.6298C5.76983 12.4941 5.85183 12.3708 5.9555 12.2672C6.05919 12.1635 6.18247 12.0815 6.31817 12.0259C6.45388 11.9704 6.59929 11.9425 6.74591 11.9437C6.89253 11.945 7.03743 11.9754 7.17214 12.0334C7.30686 12.0913 7.42871 12.1753 7.53057 12.2808L10.9139 15.6642L18.4617 8.11564C18.5643 8.01303 18.686 7.93164 18.82 7.87609C18.954 7.82062 19.0977 7.79199 19.2427 7.79199C19.3879 7.79199 19.5314 7.82062 19.6655 7.87609C19.7995 7.93164 19.9213 8.01303 20.0238 8.11564Z" fill="#096765"/>
</g>
</g>
<defs>
<clipPath id="clip0_238_16">
<rect width="26" height="26" fill="white"/>
</clipPath>
</defs>
</svg>
