<svg width="131" height="124" viewBox="0 0 131 124" fill="none" xmlns="http://www.w3.org/2000/svg">
<path d="M7.01256 66.0042L62.9135 10.5691C64.0728 9.41951 65.9385 9.408 67.1119 10.5432L124.019 65.5993C125.329 66.8672 127.458 66.6824 128.531 65.2077L128.956 64.6229C129.84 63.4074 129.688 61.7254 128.601 60.6879L67.0956 1.99957C65.9265 0.884066 64.084 0.894902 62.9281 2.02408L2.28845 61.2644C1.04907 62.4751 1.09011 64.4811 2.37798 65.6402L2.89324 66.1039C4.07562 67.1681 5.88305 67.1243 7.01256 66.0042Z" fill="black"/>
<path d="M47 91.25V106.5C47 112.851 41.8513 118 35.5 118C29.1487 118 24 112.851 24 106.5V49C24 46.8273 21.2713 45.8585 19.9011 47.5447L18.2276 49.6045C17.7569 50.1838 17.5 50.9075 17.5 51.6539V106.25C17.5 116.053 25.4469 124 35.25 124C45.0531 124 53 116.053 53 106.25V91C53 84.3726 58.3726 79 65 79C71.6274 79 77 84.3726 77 91V105.75C77 115.829 85.1708 124 95.25 124C105.329 124 113.5 115.829 113.5 105.75V52.7762C113.5 51.9559 113.19 51.1659 112.632 50.5648L109.382 47.0648C108.532 46.1494 107 46.7508 107 48V106.5C107 112.851 101.851 118 95.5 118C88.8726 118 83.5 112.627 83.5 106V91.25C83.5 81.1708 75.3292 73 65.25 73C55.1708 73 47 81.1708 47 91.25Z" fill="black"/>
</svg>
