<svg width="132" height="117" viewBox="0 0 132 117" fill="none" xmlns="http://www.w3.org/2000/svg">
<rect x="13.35" y="16.35" width="105.3" height="64.3" rx="9.65" stroke="black" stroke-width="6.7"/>
<path d="M67 2V16" stroke="black" stroke-width="6.7"/>
<rect width="132" height="7" rx="3.5" fill="black"/>
<path d="M47.2495 48.5709L31.8738 76.5859C31.0904 78.0133 32.2499 79.7287 33.8665 79.5338L37.7079 79.0706C38.3546 78.9926 38.9227 78.6046 39.2307 78.0307L48.7599 60.2737C49.3988 59.0831 51.01 58.8556 51.9536 59.8227L64.0502 72.2204C64.8312 73.0209 66.1169 73.0253 66.9035 72.2302L101.543 37.2143C102.34 36.4096 102.31 35.1052 101.478 34.3377L99.2541 32.2867C98.4721 31.5654 97.2624 31.5825 96.5011 32.3256L66.8593 61.2586C66.0861 62.0133 64.8534 62.0175 64.0751 61.2682L50.3899 48.0924C49.441 47.1787 47.8833 47.4161 47.2495 48.5709Z" fill="black"/>
<rect x="64" y="80" width="8" height="36" rx="4" fill="black"/>
<rect x="62.627" y="80.3231" width="8" height="42.4545" rx="4" transform="rotate(44 62.627 80.3231)" fill="black"/>
<rect x="67" y="85.252" width="8" height="42.4545" rx="4" transform="rotate(-44 67 85.252)" fill="black"/>
</svg>
