<svg width="121" height="118" viewBox="0 0 121 118" fill="none" xmlns="http://www.w3.org/2000/svg">
<mask id="path-1-inside-1_308_122" fill="white">
<path fill-rule="evenodd" clip-rule="evenodd" d="M55 118C85.3757 118 110 93.3757 110 63C110 62.4882 109.993 61.978 109.979 61.4695C109.918 63.6073 109.723 65.7856 109.383 68H56V8.1628C56.4864 8.11683 56.975 8.0807 57.4653 8.05427C56.6481 8.01822 55.8262 8 55 8C24.6243 8 0 32.6243 0 63C0 93.3757 24.6243 118 55 118Z"/>
</mask>
<path d="M109.979 61.4695L116.377 61.2947L103.582 61.2871L109.979 61.4695ZM109.383 68V74.4H114.876L115.709 68.9709L109.383 68ZM56 68H49.6V74.4H56V68ZM56 8.1628L55.3979 1.79119L49.6 2.33908V8.1628H56ZM57.4653 8.05427L57.8098 14.445L57.7474 1.66048L57.4653 8.05427ZM103.6 63C103.6 89.841 81.841 111.6 55 111.6V124.4C88.9103 124.4 116.4 96.9103 116.4 63H103.6ZM103.582 61.6443C103.594 62.0945 103.6 62.5464 103.6 63H116.4C116.4 62.4299 116.392 61.8615 116.377 61.2947L103.582 61.6443ZM103.582 61.2871C103.528 63.159 103.357 65.074 103.057 67.0291L115.709 68.9709C116.089 66.4972 116.308 64.0556 116.377 61.652L103.582 61.2871ZM109.383 61.6H56V74.4H109.383V61.6ZM62.4 68V8.1628H49.6V68H62.4ZM56.6021 14.5344C57.0018 14.4966 57.4044 14.4668 57.8098 14.445L57.1209 1.66354C56.5456 1.69455 55.9711 1.73702 55.3979 1.79119L56.6021 14.5344ZM55 14.4C55.7321 14.4 56.4599 14.4161 57.1833 14.448L57.7474 1.66048C56.8362 1.62029 55.9202 1.6 55 1.6V14.4ZM6.4 63C6.4 36.159 28.159 14.4 55 14.4V1.6C21.0897 1.6 -6.4 29.0897 -6.4 63H6.4ZM55 111.6C28.159 111.6 6.4 89.841 6.4 63H-6.4C-6.4 96.9103 21.0897 124.4 55 124.4V111.6Z" fill="black" mask="url(#path-1-inside-1_308_122)"/>
<path d="M53 8.68929V4.01598C115.512 2.97747 117 52.826 117 71H101.62" stroke="black" stroke-width="6.4"/>
</svg>
