<svg width="26" height="26" viewBox="0 0 26 26" fill="none" xmlns="http://www.w3.org/2000/svg">
<g clip-path="url(#clip0_238_23)">
<path d="M26 13C26 5.8203 20.1797 0 13 0C5.8203 0 0 5.8203 0 13C0 20.1797 5.8203 26 13 26C20.1797 26 26 20.1797 26 13Z" fill="#B5B5B5" fill-opacity="0.63"/>
<mask id="mask0_238_23" style="mask-type:luminance" maskUnits="userSpaceOnUse" x="4" y="4" width="18" height="18">
<path d="M21.8339 4.16602H4.16626V21.8337H21.8339V4.16602Z" fill="white"/>
</mask>
<g mask="url(#mask0_238_23)">
<path fill-rule="evenodd" clip-rule="evenodd" d="M13.0002 14.562L16.9039 18.4659C17.1111 18.673 17.3921 18.7894 17.685 18.7894C17.978 18.7894 18.259 18.673 18.4661 18.4659C18.6733 18.2588 18.7896 17.9778 18.7896 17.6848C18.7896 17.3919 18.6733 17.1109 18.4661 16.9037L14.5608 13L18.4653 9.09611C18.5679 8.99357 18.6492 8.87183 18.7047 8.73782C18.7601 8.6038 18.7887 8.46023 18.7886 8.31518C18.7886 8.17014 18.76 8.02656 18.7044 7.89262C18.649 7.75861 18.5676 7.6369 18.465 7.53437C18.3624 7.43185 18.2407 7.35053 18.1067 7.29507C17.9726 7.23961 17.8291 7.21108 17.684 7.21111C17.5391 7.21115 17.3954 7.23975 17.2615 7.29527C17.1275 7.3508 17.0058 7.43218 16.9033 7.53474L13.0002 11.4386L9.09639 7.53474C8.99455 7.42923 8.87273 7.34505 8.73802 7.28712C8.60331 7.22918 8.4585 7.19865 8.31184 7.19731C8.16525 7.19597 8.01982 7.22384 7.88411 7.27929C7.74832 7.33476 7.62502 7.41668 7.5213 7.52031C7.41757 7.62395 7.33552 7.74719 7.27993 7.8829C7.22435 8.01853 7.19634 8.16396 7.19755 8.31055C7.19875 8.45722 7.22914 8.60211 7.28695 8.73681C7.34475 8.8716 7.42882 8.9935 7.53424 9.09541L11.4396 13L7.53497 16.9045C7.42956 17.0064 7.34549 17.1283 7.28768 17.263C7.22987 17.3977 7.19948 17.5427 7.19828 17.6893C7.19708 17.836 7.22508 17.9813 7.28067 18.117C7.33626 18.2527 7.41831 18.3759 7.52203 18.4796C7.62576 18.5832 7.74909 18.6651 7.8848 18.7206C8.02051 18.7761 8.16594 18.8039 8.31261 18.8026C8.4592 18.8012 8.60409 18.7707 8.73879 18.7128C8.8735 18.6548 8.99524 18.5707 9.09708 18.4651L13.0002 14.562Z" fill="#1A1A1A"/>
</g>
</g>
<defs>
<clipPath id="clip0_238_23">
<rect width="26" height="26" fill="white"/>
</clipPath>
</defs>
</svg>
