<svg width="124" height="115" viewBox="0 0 124 115" fill="none" xmlns="http://www.w3.org/2000/svg">
<path d="M91 82.5V107.5C91 109.709 89.2091 111.5 87 111.5H7C4.79086 111.5 3 109.709 3 107.5V7C3 4.79086 4.79086 3 7 3H66M91 82.5L119.304 54.6756C120.069 53.9236 120.5 52.8958 120.5 51.8231V46.3225C120.5 45.1648 119.998 44.0638 119.125 43.3041L111.8 36.9346C110.221 35.5614 107.85 35.6375 106.362 37.1092L91 52.3043M91 82.5L79.1613 93.8833C78.4162 94.5998 77.4226 95 76.3889 95H67C64.7909 95 63 93.2091 63 91V81.6697C63 80.6012 63.4275 79.5772 64.1871 78.8258L91 52.3043M91 52.3043V26.5M91 26.5L66 3M91 26.5H70C67.7909 26.5 66 24.7091 66 22.5V3" stroke="black" stroke-width="6"/>
</svg>
