<svg width="123" height="119" viewBox="0 0 123 119" fill="none" xmlns="http://www.w3.org/2000/svg">
<path d="M63 30.5V115M63 30.5L15 18.0508M63 30.5L87.75 24.854M63 115L10.9221 102.643C6.86465 101.68 4 98.0558 4 93.8857V28.11C4 24.1768 6.55416 20.6991 10.3072 19.5223L15 18.0508M63 115L112.665 102.694C116.68 101.699 119.5 98.0947 119.5 93.9579V28.0233C119.5 24.1318 116.999 20.6811 113.301 19.4701L112.5 19.208M112.5 19.208L65.7411 3.89754C63.9584 3.3138 62.0378 3.30172 60.2478 3.86298L42 9.58475M112.5 19.208L87.75 24.854M15 18.0508L42 9.58475M87.75 24.854L42 9.58475" stroke="black" stroke-width="6.5"/>
</svg>
