<svg width="146" height="130" viewBox="0 0 146 130" fill="none" xmlns="http://www.w3.org/2000/svg">
<rect x="69.5" y="34.5" width="6" height="45" fill="black"/>
<rect x="95.5" y="32.5" width="6" height="45" fill="black"/>
<rect x="44.5" y="51.5" width="6" height="76" transform="rotate(-90 44.5 51.5)" fill="black"/>
<rect x="48.5" y="68.5" width="6" height="59" transform="rotate(-90 48.5 68.5)" fill="black"/>
<path d="M33.8005 0H3.25C1.45507 0 0 1.45507 0 3.25C0 5.04493 1.45507 6.5 3.25 6.5H28.7989C30.6702 6.5 32.2915 7.79746 32.7016 9.6233L47.4027 75.067C47.4674 75.3548 47.5 75.6488 47.5 75.9437V111.5C47.5 113.709 49.2909 115.5 51.5 115.5H96.75C98.5449 115.5 100 114.045 100 112.25C100 110.455 98.5449 109 96.75 109H58C55.7909 109 54 107.209 54 105V75.9448C54 75.6492 53.9672 75.3545 53.9023 75.0661L37.7028 3.12134C37.2919 1.29643 35.6711 0 33.8005 0Z" fill="black"/>
<path d="M126.5 31H44C42.3431 31 41 32.3431 41 34C41 35.6569 42.3431 37 44 37H116.181C119.444 37 121.334 40.695 119.425 43.3405L96.6974 74.8405C95.9455 75.8826 94.7387 76.5 93.4536 76.5H53.25C51.7312 76.5 50.5 77.7312 50.5 79.25C50.5 80.7688 51.7312 82 53.25 82H53.5H98.3996C99.7147 82 100.946 81.3536 101.692 80.2709L129.793 39.5254C130.253 38.8576 130.5 38.0656 130.5 37.2544V35C130.5 32.7909 128.709 31 126.5 31Z" fill="black"/>
<path d="M130.25 101.537H117.542V114.245C117.542 114.919 117.274 115.565 116.797 116.042C116.321 116.519 115.674 116.787 115 116.787C114.326 116.787 113.68 116.519 113.203 116.042C112.726 115.565 112.458 114.919 112.458 114.245V101.537H99.7502C99.0761 101.537 98.4296 101.269 97.9529 100.792C97.4763 100.315 97.2085 99.669 97.2085 98.9949C97.2085 98.3208 97.4763 97.6743 97.9529 97.1977C98.4296 96.721 99.0761 96.4533 99.7502 96.4533H112.458V83.7449C112.458 83.0708 112.726 82.4243 113.203 81.9477C113.68 81.471 114.326 81.2033 115 81.2033C115.674 81.2033 116.321 81.471 116.797 81.9477C117.274 82.4243 117.542 83.0708 117.542 83.7449V96.4533H130.25C130.924 96.4533 131.571 96.721 132.047 97.1977C132.524 97.6743 132.792 98.3208 132.792 98.9949C132.792 99.669 132.524 100.315 132.047 100.792C131.571 101.269 130.924 101.537 130.25 101.537Z" fill="black"/>
</svg>
